<mxfile host="app.diagrams.net" modified="2024-05-02T11:11:22.231Z" agent="Mozilla/5.0 (X11; Linux x86_64; rv:124.0) Gecko/20100101 Firefox/124.0" etag="o3tjh2Au_R8_abbumJB4" version="24.3.1" type="device">
  <diagram name="Page-1" id="Q3mBGWrwZ0WqKtqV44Mk">
    <mxGraphModel dx="1173" dy="814" grid="1" gridSize="10" guides="1" tooltips="1" connect="1" arrows="1" fold="1" page="1" pageScale="1" pageWidth="850" pageHeight="1100" math="0" shadow="0">
      <root>
        <mxCell id="0" />
        <mxCell id="1" parent="0" />
        <mxCell id="oD_Yi28MRMcOgQZIaKZo-1" value="&lt;font style=&quot;font-size: 20px;&quot;&gt;Server&lt;/font&gt;" style="rounded=0;whiteSpace=wrap;html=1;" parent="1" vertex="1">
          <mxGeometry x="280" y="397" width="320" height="60" as="geometry" />
        </mxCell>
        <mxCell id="oD_Yi28MRMcOgQZIaKZo-2" value="&lt;font style=&quot;font-size: 20px;&quot;&gt;Web-Client&lt;/font&gt;" style="rounded=0;whiteSpace=wrap;html=1;" parent="1" vertex="1">
          <mxGeometry x="270" y="150" width="330" height="60" as="geometry" />
        </mxCell>
        <mxCell id="oD_Yi28MRMcOgQZIaKZo-3" value="&lt;font style=&quot;font-size: 20px;&quot;&gt;Ring-Door-Bell&lt;/font&gt;" style="rounded=0;whiteSpace=wrap;html=1;" parent="1" vertex="1">
          <mxGeometry x="280" y="560" width="320" height="60" as="geometry" />
        </mxCell>
        <mxCell id="oD_Yi28MRMcOgQZIaKZo-4" value="&lt;font style=&quot;font-size: 22px;&quot;&gt;Register Ring-Door-Bell to User&lt;/font&gt; " style="text;html=1;align=center;verticalAlign=middle;whiteSpace=wrap;rounded=0;" parent="1" vertex="1">
          <mxGeometry x="30" y="80" width="540" height="30" as="geometry" />
        </mxCell>
        <mxCell id="oD_Yi28MRMcOgQZIaKZo-10" value="" style="endArrow=classic;html=1;rounded=0;entryX=0.116;entryY=-0.017;entryDx=0;entryDy=0;exitX=0.139;exitY=1.1;exitDx=0;exitDy=0;exitPerimeter=0;entryPerimeter=0;" parent="1" source="oD_Yi28MRMcOgQZIaKZo-2" target="oD_Yi28MRMcOgQZIaKZo-1" edge="1">
          <mxGeometry width="50" height="50" relative="1" as="geometry">
            <mxPoint x="190" y="240" as="sourcePoint" />
            <mxPoint x="450" y="440" as="targetPoint" />
          </mxGeometry>
        </mxCell>
        <mxCell id="oD_Yi28MRMcOgQZIaKZo-11" value="&lt;div&gt;2. registerDoorbell(macAdress, secret)&lt;/div&gt;&lt;div&gt;&lt;br&gt;&lt;/div&gt;" style="edgeLabel;html=1;align=center;verticalAlign=middle;resizable=0;points=[];" parent="oD_Yi28MRMcOgQZIaKZo-10" vertex="1" connectable="0">
          <mxGeometry x="-0.2738" relative="1" as="geometry">
            <mxPoint as="offset" />
          </mxGeometry>
        </mxCell>
        <mxCell id="oD_Yi28MRMcOgQZIaKZo-19" value="" style="endArrow=none;html=1;rounded=0;strokeWidth=5;" parent="1" edge="1">
          <mxGeometry width="50" height="50" relative="1" as="geometry">
            <mxPoint x="280" y="370" as="sourcePoint" />
            <mxPoint x="600" y="370" as="targetPoint" />
          </mxGeometry>
        </mxCell>
        <mxCell id="oD_Yi28MRMcOgQZIaKZo-20" value="&lt;i&gt;REST&lt;/i&gt;" style="edgeLabel;html=1;align=center;verticalAlign=middle;resizable=0;points=[];" parent="oD_Yi28MRMcOgQZIaKZo-19" vertex="1" connectable="0">
          <mxGeometry x="0.15" y="3" relative="1" as="geometry">
            <mxPoint as="offset" />
          </mxGeometry>
        </mxCell>
        <mxCell id="oD_Yi28MRMcOgQZIaKZo-27" value="" style="endArrow=classic;html=1;rounded=0;entryX=1;entryY=1;entryDx=0;entryDy=0;exitX=1;exitY=0;exitDx=0;exitDy=0;strokeWidth=2;" parent="1" source="oD_Yi28MRMcOgQZIaKZo-1" target="oD_Yi28MRMcOgQZIaKZo-2" edge="1">
          <mxGeometry width="50" height="50" relative="1" as="geometry">
            <mxPoint x="600" y="360" as="sourcePoint" />
            <mxPoint x="450" y="440" as="targetPoint" />
          </mxGeometry>
        </mxCell>
        <mxCell id="oD_Yi28MRMcOgQZIaKZo-28" value="3. registerDoorbell(): success" style="edgeLabel;html=1;align=center;verticalAlign=middle;resizable=0;points=[];" parent="oD_Yi28MRMcOgQZIaKZo-27" vertex="1" connectable="0">
          <mxGeometry x="0.1765" y="4" relative="1" as="geometry">
            <mxPoint as="offset" />
          </mxGeometry>
        </mxCell>
        <mxCell id="oD_Yi28MRMcOgQZIaKZo-29" value="&lt;ol&gt;&lt;li&gt;user presses button on ringdoorbell to show macAdress of doorbell. (Could also be a qr-code)&lt;br&gt;&lt;br&gt;&lt;/li&gt;&lt;li&gt;&amp;nbsp;User enters macAddress (scans QR-Code) in Web-Client and enters secret which was sent to the user together with the bell.&lt;br&gt;&lt;br&gt;&lt;/li&gt;&lt;li&gt;Server hashes secret send by user and compares it with hashed secret which is saved together with the corresponding macAddress. Returns to Web-Client if it was a success&lt;br&gt;&lt;br&gt;&lt;/li&gt;&lt;/ol&gt;&lt;div&gt;&lt;br&gt;&lt;/div&gt;" style="text;html=1;align=left;verticalAlign=top;whiteSpace=wrap;rounded=0;" parent="1" vertex="1">
          <mxGeometry x="140" y="805" width="550" height="280" as="geometry" />
        </mxCell>
        <mxCell id="5q31W0fazKcYKmvmHG8t-1" value="Actor" style="shape=umlActor;verticalLabelPosition=bottom;verticalAlign=top;html=1;outlineConnect=0;" vertex="1" parent="1">
          <mxGeometry x="300" y="720" width="30" height="60" as="geometry" />
        </mxCell>
        <mxCell id="5q31W0fazKcYKmvmHG8t-2" value="" style="endArrow=classic;html=1;rounded=0;entryX=0.125;entryY=1.061;entryDx=0;entryDy=0;entryPerimeter=0;" edge="1" parent="1" target="oD_Yi28MRMcOgQZIaKZo-3">
          <mxGeometry width="50" height="50" relative="1" as="geometry">
            <mxPoint x="320" y="700" as="sourcePoint" />
            <mxPoint x="420" y="550" as="targetPoint" />
          </mxGeometry>
        </mxCell>
        <mxCell id="5q31W0fazKcYKmvmHG8t-3" value="1. showMacAddress" style="edgeLabel;html=1;align=center;verticalAlign=middle;resizable=0;points=[];" vertex="1" connectable="0" parent="5q31W0fazKcYKmvmHG8t-2">
          <mxGeometry x="0.1681" y="-5" relative="1" as="geometry">
            <mxPoint as="offset" />
          </mxGeometry>
        </mxCell>
      </root>
    </mxGraphModel>
  </diagram>
</mxfile>
